# xmcd
#
# Track frame offsets:
#        150
#        24495
#        38642
#        54422
#        68695
#        84405
#        104250
#        121710
#        144787
#        162707
#        178947
#        197612
#        217237
#        239712
#
# Disc length: 3399 seconds
#
# Revision: 0
# Processed by: cddbd v1.5.1PL2 Copyright (c) Steve Scherf et al.
# Submitted via: ExactAudioCopy v0.95a5
#
DISCID=c20d450e
DTITLE=ROLLER COASTER - SOMETHING FOR LITTLE WALTER
DYEAR=1991
DGENRE=Blues
TTITLE0=I Got To Find My Baby
TTITLE1=Everybody Needs Somebody
TTITLE2=You're So Fine
TTITLE3=I Had My Fun
TTITLE4=Tempereture
TTITLE5=Up The Line
TTITLE6=Last Night
TTITLE7=Everything Gonna Be All Right
TTITLE8=I Got To Go
TTITLE9=One More Chance With You
TTITLE10=Too Late
TTITLE11=Can't Hold Out Much Longer
TTITLE12=Mellow Down Easy
TTITLE13=A tribute to Little Walter Jacobs
EXTD=
EXTT0=
EXTT1=
EXTT2=
EXTT3=
EXTT4=
EXTT5=
EXTT6=
EXTT7=
EXTT8=
EXTT9=
EXTT10=
EXTT11=
EXTT12=
EXTT13=
PLAYORDER=
